<svg height="512pt" viewBox="0 0 512 512" width="512pt" xmlns="http://www.w3.org/2000/svg"><path d="m512 256c0 141.386719-114.613281 256-256 256s-256-114.613281-256-256 114.613281-256 256-256 256 114.613281 256 256zm0 0" fill="#b5e237"/><path d="m512 256c0 141.378906-114.621094 256-256 256s-256-114.621094-256-256c0-46.21875 12.25-89.570312 33.679688-127 44.121093 77.070312 127.160156 129 222.320312 129s178.210938-51.929688 222.320312-129c21.429688 37.429688 33.679688 80.78125 33.679688 127zm0 0" fill="#95d600"/><path d="m481.261719 377.699219v.011719c-43.292969 79.96875-127.941407 134.289062-225.261719 134.289062s-181.96875-54.320312-225.261719-134.289062v-.011719zm0 0" fill="#85af12"/><path d="m436.269531 268.800781v168.960938c-37.660156 37.347656-86.859375 63.078125-141.78125 71.359375-12.558593 1.898437-25.410156 2.878906-38.488281 2.878906-36.75 0-71.691406-7.75-103.28125-21.691406v-280.898438h224.152344zm0 0" fill="#d0f6ff"/><path d="m436.269531 268.800781v168.960938c-37.660156 37.347656-86.859375 63.078125-141.78125 71.359375v-299.710938h82.382813zm0 0" fill="#65b2ff"/><path d="m436.265625 268.800781-59.390625-59.390625v59.390625zm0 0" fill="#0f9be8"/><path d="m376.878906 209.410156v272.300782c-25.230468 13.539062-52.988281 22.980468-82.390625 27.410156-12.558593 1.898437-25.410156 2.878906-38.488281 2.878906-36.75 0-71.691406-7.75-103.28125-21.691406-21.507812-9.5-41.46875-21.867188-59.390625-36.636719v-303.652344h224.152344zm0 0" fill="#fff"/><path d="m376.878906 209.410156v272.300782c-25.230468 13.539062-52.988281 22.980468-82.390625 27.410156-12.558593 1.898437-25.410156 2.878906-38.488281 2.878906-7.039062 0-14.011719-.28125-20.898438-.851562v-361.128907h82.378907zm0 0" fill="#d0f6ff"/><path d="m376.875 209.414062-59.390625-59.390624v59.390624zm0 0" fill="#65b2ff"/><path d="m183.5 222.230469c0 17.222656-13.957031 31.179687-31.179688 31.179687-17.21875 0-31.179687-13.957031-31.179687-31.179687 0-17.21875 13.960937-31.179688 31.179687-31.179688 17.222657 0 31.179688 13.960938 31.179688 31.179688zm0 0" fill="#65b2ff"/><path d="m152.320312 253.410156c5.828126 0 11.28125-1.601562 15.949219-4.386718-.015625-.027344-.027343-.054688-.039062-.082032-.019531-.035156-.03125-.074218-.050781-.109375-.070313-.148437-.148438-.292969-.226563-.441406-.011719-.027344-.027344-.054687-.042969-.089844-.082031-.148437-.167968-.296875-.253906-.445312-.011719-.019531-.023438-.042969-.039062-.070313-.085938-.148437-.179688-.300781-.273438-.449218-.007812-.019532-.023438-.035157-.03125-.054688-.097656-.152344-.199219-.304688-.300781-.453125-.007813-.015625-.019531-.027344-.027344-.042969-.109375-.152344-.214844-.300781-.328125-.453125-.003906-.007812-.007812-.019531-.019531-.023437-.109375-.15625-.226563-.304688-.351563-.453125-.003906-.003907-.003906-.007813-.007812-.015625-.125-.148438-.25-.304688-.378906-.453125h-.003907c-1.683593-1.945313-3.847656-3.488281-6.359375-4.449219-.046875-.015625-.09375-.039062-.140625-.054688l-.742187-.277343h-12.660156l-.738282.277343c-.046875.015626-.097656.039063-.140625.054688-1.257812.476562-2.425781 1.109375-3.492187 1.855469-1.066406.746093-2.027344 1.621093-2.871094 2.597656-.003906 0-.003906 0-.003906 0-.125.144531-.253906.300781-.378906.453125-.003907.003906-.003907.003906-.007813.007812-.121094.152344-.238281.300782-.351563.453126-.007812.011718-.015624.019531-.023437.027343-.105469.152344-.21875.304688-.324219.453125-.007812.015625-.015625.027344-.027344.042969-.101562.148437-.199218.300781-.300781.453125-.007812.019531-.023437.035156-.03125.054688-.09375.148437-.1875.300781-.273437.449218-.011719.023438-.027344.046875-.039063.066406-.085937.152344-.171875.304688-.253906.453126-.011719.03125-.027344.058593-.042969.089843-.078125.140625-.15625.289063-.226562.441407-.019532.035156-.03125.070312-.050782.101562-.011718.03125-.023437.058594-.039062.089844 4.664062 2.78125 10.117188 4.382812 15.945312 4.382812zm0 0" fill="#ff3445"/><path d="m168.230469 248.941406c-.019531-.039062-.03125-.074218-.050781-.109375-.070313-.148437-.148438-.292969-.226563-.441406-.011719-.027344-.027344-.058594-.042969-.089844-.082031-.148437-.167968-.296875-.253906-.445312-.011719-.023438-.023438-.042969-.039062-.070313-.085938-.148437-.179688-.304687-.273438-.449218-.007812-.019532-.023438-.039063-.03125-.054688-.097656-.152344-.199219-.308594-.300781-.457031-.007813-.011719-.019531-.023438-.027344-.039063-.109375-.152344-.214844-.300781-.328125-.453125-.003906-.011719-.007812-.019531-.019531-.023437-.109375-.15625-.226563-.304688-.351563-.453125-.003906-.003907-.003906-.007813-.007812-.019531-.125-.148438-.25-.300782-.378906-.449219h-.003907c-1.683593-1.949219-3.847656-3.492188-6.359375-4.449219-.046875-.015625-.09375-.039062-.140625-.058594l-.742187-.273437h-6.328125v12.808593c5.828125 0 11.28125-1.605468 15.949219-4.386718-.019532-.03125-.03125-.058594-.042969-.085938zm0 0" fill="#dd1265"/><path d="m145.992188 240.605469 2.164062 6.257812 4.164062-3.261719v-3.925781l-4.683593-.945312zm0 0" fill="#fff"/><path d="m158.652344 240.605469-2.167969 6.257812-4.164063-3.261719v-3.925781l4.664063-1.003906zm0 0" fill="#d0f6ff"/><path d="m152.320312 243.601562c-2.585937 0-4.683593-2.097656-4.683593-4.683593v-9.8125h9.371093v9.8125c0 2.585937-2.097656 4.683593-4.6875 4.683593zm0 0" fill="#e3835a"/><path d="m138.632812 222.15625c-1.863281 0-3.371093 1.507812-3.371093 3.371094 0 2.585937 2.101562 4.6875 4.6875 4.6875h2.125v-7.984375s-3.230469-.074219-3.441407-.074219zm0 0" fill="#ffa87a"/><path d="m166.011719 222.15625c1.859375 0 3.367187 1.507812 3.367187 3.371094 0 2.585937-2.097656 4.6875-4.6875 4.6875h-2.125v-7.984375s3.234375-.074219 3.445313-.074219zm0 0" fill="#cc5a28"/><path d="m164.980469 223.472656c0 3.558594-.855469 6.914063-2.371094 9.878906-1.980469 3.863282-5.957031 6.296876-10.289063 6.324219h-.078124c-4.367188 0-8.375-2.4375-10.363282-6.324219-1.519531-2.964843-2.375-6.320312-2.375-9.878906 0-.890625.054688-1.761718.15625-2.625.03125-.285156.074219-.570312.117188-.847656 1.144531-7.089844 6.851562-10.621094 12.542968-10.585938.75.003907 1.5.070313 2.242188.203126 1.773438.304687 3.484375.964843 4.984375 1.988281 2.578125 1.746093 4.542969 4.546875 5.160156 8.394531.136719.882812.234375 1.78125.261719 2.699219.011719.253906.011719.511719.011719.773437zm0 0" fill="#ffa87a"/><path d="m164.980469 223.472656c0 3.558594-.855469 6.914063-2.371094 9.878906-1.980469 3.863282-5.957031 6.296876-10.289063 6.324219v-30.261719c.75.003907 1.5.070313 2.242188.203126 1.773438.304687 3.484375.964843 4.984375 1.988281 2.578125 1.746093 4.542969 4.546875 5.160156 8.394531.136719.882812.234375 1.78125.261719 2.699219.011719.253906.011719.511719.011719.773437zm0 0" fill="#ea824e"/><path d="m160.3125 208.917969c-.882812 5.910156-3.601562 10.214843-7.992188 12.628906-1.917968 1.0625-4.152343 1.757813-6.691406 2.074219-2.28125.28125-4.789062.003906-6.882812-.910156-.660156-.285157-1.054688-.980469-.984375-1.695313 0-.003906.007812-.007813.007812-.011719 1.066407-9.921875 7.8125-14.917968 14.550781-14.828125.714844.003907 1.4375.070313 2.144532.195313 2.0625.355468 4.070312 1.203125 5.847656 2.546875zm0 0" fill="#474f6f"/><path d="m160.3125 208.917969c-.882812 5.910156-3.601562 10.214843-7.992188 12.628906v-15.371094c.714844.003907 1.4375.070313 2.140626.195313 2.066406.355468 4.074218 1.203125 5.851562 2.546875zm0 0" fill="#323b5a"/><path d="m165.078125 223.191406c-9.277344-.046875-12.140625-8.050781-10.613281-16.820312 5.601562.972656 10.769531 5.546875 12.140625 13.808594.074219.457031.125.808593.164062 1.140624.117188 1.003907-.679687 1.875-1.691406 1.871094zm0 0" fill="#323b5a"/><g fill="#474f6f"><path d="m121.140625 267.445312h64.246094v15.503907h-64.246094zm0 0"/><path d="m121.140625 296.242188h64.246094v15.507812h-64.246094zm0 0"/><path d="m121.140625 325.042969h64.246094v15.507812h-64.246094zm0 0"/><path d="m121.136719 353.84375h226.042969v15.507812h-226.042969zm0 0"/><path d="m121.136719 382.644531h226.042969v15.503907h-226.042969zm0 0"/><path d="m121.136719 411.441406h226.042969v15.507813h-226.042969zm0 0"/><path d="m121.136719 440.242188h226.042969v15.507812h-226.042969zm0 0"/></g><path d="m235.09375 353.84375h112.085938v15.507812h-112.085938zm0 0" fill="#323b5a"/><path d="m235.09375 382.644531h112.085938v15.503907h-112.085938zm0 0" fill="#323b5a"/><path d="m235.09375 411.441406h112.085938v15.507813h-112.085938zm0 0" fill="#323b5a"/><path d="m235.09375 440.242188h112.085938v15.507812h-112.085938zm0 0" fill="#323b5a"/><path d="m274.492188 286.628906c-5.070313 0-8.753907 4.042969-8.753907 9.65625 0 5.675782 3.683594 9.777344 8.753907 9.777344 3.019531 0 6.820312-1.871094 9.597656-4.828125l8.089844 8.632813c-4.707032 5.128906-11.890626 8.449218-18.410157 8.449218-12.980469 0-22.398437-9.234375-22.398437-21.851562 0-12.433594 9.660156-21.488282 22.941406-21.488282 6.457031 0 13.523438 3.015626 17.867188 7.726563l-8.089844 9.597656c-2.535156-3.441406-6.335938-5.671875-9.597656-5.671875zm0 0" fill="#474f6f"/><path d="m306.664062 275.398438 8.753907 27.769531 8.691406-27.769531h14.308594l-16.179688 42.316406h-14.484375l-16.058594-42.316406zm0 0" fill="#474f6f"/><path d="m92.363281 197.742188h-1.523437c-6.753906 0-12.230469-5.472657-12.230469-12.226563v-1.523437h-8.714844v1.523437c0 6.753906-5.472656 12.226563-12.226562 12.226563h-1.523438v8.71875h1.523438c6.753906 0 12.226562 5.472656 12.226562 12.226562v1.523438h8.714844v-1.523438c0-6.753906 5.476563-12.226562 12.230469-12.226562h1.523437zm0 0" fill="#fff"/><path d="m157.015625 68.613281h-1.523437c-6.753907 0-12.226563-5.472656-12.226563-12.226562v-1.523438h-8.714844v1.523438c0 6.753906-5.476562 12.226562-12.226562 12.226562h-1.527344v8.714844h1.527344c6.75 0 12.226562 5.476563 12.226562 12.230469v1.523437h8.714844v-1.523437c0-6.753906 5.472656-12.230469 12.226563-12.230469h1.523437zm0 0" fill="#fff"/><path d="m391.199219 68.613281h-1.523438c-6.75 0-12.226562-5.472656-12.226562-12.226562v-1.523438h-8.714844v1.523438c0 6.753906-5.472656 12.226562-12.226563 12.226562h-1.527343v8.714844h1.527343c6.753907 0 12.226563 5.476563 12.226563 12.230469v1.523437h8.714844v-1.523437c0-6.753906 5.476562-12.230469 12.226562-12.230469h1.523438zm0 0" fill="#fff"/><path d="m455.855469 197.742188h-1.523438c-6.753906 0-12.226562-5.472657-12.226562-12.226563v-1.523437h-8.714844v1.523437c0 6.753906-5.476563 12.226563-12.230469 12.226563h-1.523437v8.71875h1.523437c6.753906 0 12.230469 5.472656 12.230469 12.226562v1.523438h8.714844v-1.523438c0-6.753906 5.472656-12.226562 12.226562-12.226562h1.523438zm0 0" fill="#fff"/></svg>